<mxfile host="app.diagrams.net" modified="2020-12-14T01:55:59.514Z" agent="5.0 (Windows)" etag="FUziaFYRcjTLm1meM6oF" version="13.11.0" type="github">
  <diagram id="-ZOPiQ9BxUE2tg-C2Wg1" name="Page-1">
    <mxGraphModel dx="1347" dy="575" grid="1" gridSize="10" guides="1" tooltips="1" connect="1" arrows="1" fold="1" page="1" pageScale="1" pageWidth="827" pageHeight="1169" math="0" shadow="0">
      <root>
        <mxCell id="0" />
        <mxCell id="1" parent="0" />
        <mxCell id="KuG9MxHWzlSyERpQcjcm-2" value="&lt;div&gt;カレンダー選択&lt;/div&gt;&lt;div&gt;（デフォルトを最新日）&lt;/div&gt;" style="rounded=0;whiteSpace=wrap;html=1;" vertex="1" parent="1">
          <mxGeometry x="-730" y="180" width="150" height="60" as="geometry" />
        </mxCell>
        <mxCell id="KuG9MxHWzlSyERpQcjcm-3" value="&lt;div&gt;指定事業者選択&lt;/div&gt;（ALLをデフォルト）" style="rounded=0;whiteSpace=wrap;html=1;" vertex="1" parent="1">
          <mxGeometry x="-730" y="260" width="120" height="60" as="geometry" />
        </mxCell>
        <mxCell id="KuG9MxHWzlSyERpQcjcm-4" value="&lt;div&gt;tableで表示&lt;/div&gt;&lt;div&gt;CN、証明書タイプ、指定事業者、発行日、失効日&lt;br&gt;&lt;/div&gt;" style="rounded=0;whiteSpace=wrap;html=1;" vertex="1" parent="1">
          <mxGeometry x="-730" y="470" width="430" height="420" as="geometry" />
        </mxCell>
        <mxCell id="KuG9MxHWzlSyERpQcjcm-5" value="統計情報" style="rounded=0;whiteSpace=wrap;html=1;" vertex="1" parent="1">
          <mxGeometry x="-730" y="380" width="430" height="60" as="geometry" />
        </mxCell>
        <mxCell id="KuG9MxHWzlSyERpQcjcm-6" value="get" style="rounded=1;whiteSpace=wrap;html=1;" vertex="1" parent="1">
          <mxGeometry x="-730" y="330" width="60" height="30" as="geometry" />
        </mxCell>
        <mxCell id="KuG9MxHWzlSyERpQcjcm-7" value="reset" style="rounded=1;whiteSpace=wrap;html=1;" vertex="1" parent="1">
          <mxGeometry x="-650" y="330" width="60" height="30" as="geometry" />
        </mxCell>
      </root>
    </mxGraphModel>
  </diagram>
</mxfile>
